<svg xmlns="http://www.w3.org/2000/svg" width="882.236" height="216.615" viewBox="0 0 233.425 57.313"><path d="M153.524 54.522c-.645-.142-.733-.679-.42-2.567l.167-1.018 1.36.17c1.156.144 1.497.077 2.276-.448 1.744-1.174 1.703-.819 1.786-15.216l.076-13.033-.605-.238c-.332-.131-1.2-.339-1.928-.462l-1.322-.223-.08-1.521-.08-1.522h8.51l-.074 15.412-.074 15.412-.63 1.391c-.69 1.528-1.994 2.827-3.447 3.434-.955.399-4.427.67-5.515.43zM62.958 44.295c-2.551-.724-4.3-2.324-5.31-4.86-.583-1.462-.62-1.935-.708-8.901-.067-5.357-.177-7.382-.404-7.445a460.27 460.27 0 00-1.437-.392l-1.124-.305V18.18h9.79v8.858c0 9.834.089 10.447 1.683 11.584 1.586 1.13 4.682.679 6.453-.94.588-.538.595-.624.595-7.518 0-5.343-.077-7-.33-7.085-.183-.06-.838-.24-1.456-.398l-1.125-.288V18.18h9.922l-.072 10.365c-.04 5.846.03 10.469.164 10.602.13.13.818.385 1.528.565l1.29.33.078 2.165.076 2.167h-4.48c-4.87 0-4.797.023-4.805-1.543a6.234 6.234 0 00-.165-1.308c-.154-.576-.214-.55-1.46.614-.715.669-1.84 1.455-2.503 1.748-1.512.669-4.574.871-6.2.41zm33.747.095c-1.159-.283-2.824-1.195-3.493-1.913-1.44-1.542-1.524-2.106-1.666-11.068l-.132-8.334-1.786-.079-1.786-.078v-4.714l1.786-.078 1.786-.078.074-3.25.074-3.248 3.365.074 3.366.074.074 3.24.074 3.242h4.746v4.762H98.425v7.294c0 4.718.1 7.482.286 7.828.43.804 1.87 1.303 3.226 1.118l1.162-.16.324 2.317c.178 1.274.228 2.409.11 2.522-.624.6-5.114.948-6.828.529zm22.122-.038c-.64-.126-1.911-.579-2.826-1.007-4.38-2.05-6.556-6.1-6.556-12.2 0-4.765 1.124-7.71 3.916-10.262 2.524-2.307 5.057-3.114 9.106-2.902 1.687.088 3.04.322 4.004.693 3.115 1.2 5.549 3.83 6.64 7.179.712 2.184.943 6.128.51 8.697-1.192 7.062-7.492 11.236-14.794 9.802zm5.465-5.708c2.008-1.488 2.818-3.977 2.658-8.165-.098-2.555-.213-3.162-.842-4.448-1.006-2.056-1.94-2.665-4.266-2.779-1.6-.078-1.98-.005-2.773.534-1.096.744-2.018 2.043-2.384 3.359-.418 1.505-.336 7.182.123 8.482.932 2.641 2.602 3.804 5.235 3.645 1.002-.06 1.772-.276 2.249-.628zM0 42.297V40.22l1.786-.37 1.786-.371.069-12.359c.078-14.068.346-12.54-2.339-13.336L0 13.397V9.184l8.93.002c4.911.001 9.682.124 10.603.273 6.74 1.094 10.64 6.07 9.837 12.55-.567 4.57-3.923 7.95-8.951 9.017-1.073.227-3.35.376-5.8.378l-4.036.005V39.564l1.852.312 1.853.312v4.186H0zm19.253-16.59c3.417-1.427 4.483-5.89 2.17-9.085-1.197-1.651-2.875-2.146-7.278-2.146h-3.562v11.641h3.845c2.872 0 4.093-.103 4.825-.41zM35.19 42.31v-2.064l1.587-.328 1.588-.328V25.834c0-10.77-.072-13.78-.331-13.865-.182-.06-1.015-.242-1.852-.407l-1.522-.299v-4.46h10.716l-.07 16.26c-.08 18.365-.302 16.586 2.12 16.949l1.257.188v4.174H35.19zm107.42-.318v-2.381h4.498v4.763h-4.498zm29.105.959v-1.423l1.918-.37 1.918-.368.068-14.977.069-14.976-1.92-.369-1.921-.368-.079-1.649-.079-1.648h8.753l.068 16.993.068 16.994 1.918.369 1.919.369v2.846h-12.7zm-13.23-33.9V6.539H163.247V11.565H158.486z"/><g transform="matrix(.74928 0 0 .74928 82.512 -57.003)" stroke-width="3"><circle cx="183.41" cy="134.568" r="16.5" fill="#d66661" stroke="#c93d39"/><circle cx="183.41" cy="114.322" r="16.5" fill="#aa7dc0" stroke="#945bb0"/><circle cx="183.41" cy="94.077" r="16.5" fill="#6bab5b" stroke="#3b972e"/></g></svg>